<?xml version="1.0" encoding="UTF-8" ?>
<!DOCTYPE svg PUBLIC "-//W3C//DTD SVG 1.1//EN" "http://www.w3.org/Graphics/SVG/1.1/DTD/svg11.dtd">
<svg width="1190pt" height="365pt" viewBox="0 0 1190 365" version="1.1" xmlns="http://www.w3.org/2000/svg">
<path fill="#fcfcfc" d=" M 0.00 0.00 L 153.34 0.00 C 149.83 0.58 146.72 2.60 144.75 5.56 C 135.94 17.06 127.32 28.71 118.03 39.83 C 85.94 77.78 49.75 112.56 8.68 140.71 C 4.92 143.28 0.71 146.18 0.00 151.07 L 0.00 0.00 Z" />
<path fill="#054275" d=" M 153.34 0.00 L 154.74 0.00 C 157.85 0.93 161.04 2.38 162.78 5.28 C 174.09 22.01 186.93 37.65 200.10 52.94 C 212.87 66.42 225.47 80.06 238.92 92.87 C 258.95 111.52 280.29 128.84 303.15 143.93 C 306.78 146.65 308.78 151.82 307.00 156.15 C 305.59 159.58 302.13 161.36 299.13 163.17 C 295.46 165.26 292.04 167.76 288.67 170.31 C 241.85 205.02 200.09 246.64 165.77 293.78 C 163.26 297.15 161.11 301.00 157.59 303.44 C 153.30 304.07 147.65 304.51 145.13 300.12 C 136.73 286.16 126.07 273.77 116.09 260.95 C 103.53 246.57 90.74 232.35 76.97 219.11 C 54.69 197.77 30.86 178.02 5.47 160.48 C 2.68 158.69 0.77 155.84 0.00 152.64 L 0.00 151.07 C 0.71 146.18 4.92 143.28 8.68 140.71 C 49.75 112.56 85.94 77.78 118.03 39.83 C 127.32 28.71 135.94 17.06 144.75 5.56 C 146.72 2.60 149.83 0.58 153.34 0.00 Z" />
<path fill="#fcfcfc" d=" M 154.74 0.00 L 1190.00 0.00 L 1190.00 304.39 C 1187.15 304.19 1184.31 304.21 1181.48 304.21 C 1177.41 314.19 1173.26 324.13 1169.22 334.12 C 1165.52 324.22 1162.23 314.17 1158.81 304.18 C 1154.79 304.23 1150.79 304.23 1146.78 304.18 C 1152.05 319.09 1157.04 334.09 1162.26 349.01 C 1159.05 354.27 1156.23 359.75 1153.03 365.00 L 0.00 365.00 L 0.00 152.64 C 0.77 155.84 2.68 158.69 5.47 160.48 C 30.86 178.02 54.69 197.77 76.97 219.11 C 90.74 232.35 103.53 246.57 116.09 260.95 C 126.07 273.77 136.73 286.16 145.13 300.12 C 147.65 304.51 153.30 304.07 157.59 303.44 C 161.11 301.00 163.26 297.15 165.77 293.78 C 200.09 246.64 241.85 205.02 288.67 170.31 C 292.04 167.76 295.46 165.26 299.13 163.17 C 302.13 161.36 305.59 159.58 307.00 156.15 C 308.78 151.82 306.78 146.65 303.15 143.93 C 280.29 128.84 258.95 111.52 238.92 92.87 C 225.47 80.06 212.87 66.42 200.10 52.94 C 186.93 37.65 174.09 22.01 162.78 5.28 C 161.04 2.38 157.85 0.93 154.74 0.00 Z" />
<path fill="#fcfcfc" d=" M 148.20 40.11 C 155.70 37.73 163.55 41.00 169.71 45.25 C 182.71 54.73 194.68 65.50 206.64 76.24 C 227.13 95.61 245.93 116.83 262.30 139.81 C 265.79 144.69 269.13 150.95 266.85 157.04 C 260.61 171.68 249.12 183.03 239.10 195.08 C 218.47 217.48 196.70 239.07 172.09 257.12 C 166.96 260.95 161.48 265.08 154.88 265.60 C 150.92 266.05 147.42 263.70 144.13 261.86 C 130.90 253.80 119.24 243.51 107.92 233.02 C 84.97 212.66 63.17 190.70 45.51 165.51 C 42.04 161.17 39.00 155.77 40.02 150.01 C 42.03 142.09 47.68 135.89 52.40 129.46 C 67.29 110.81 83.81 93.47 101.43 77.38 C 112.58 66.76 124.24 56.66 136.74 47.65 C 140.46 45.01 143.84 41.70 148.20 40.11 Z" />
<path fill="#512e70" d=" M 347.38 40.26 C 368.66 40.29 389.93 40.30 411.21 40.26 C 411.34 117.04 411.13 193.81 411.31 270.59 C 390.00 270.74 368.68 270.65 347.36 270.63 C 347.48 193.84 347.43 117.05 347.38 40.26 Z" />
<path fill="#512e70" d=" M 444.45 40.36 C 502.91 40.16 561.37 40.37 619.83 40.26 C 619.82 55.14 619.80 70.02 619.83 84.90 C 582.65 85.09 545.46 84.69 508.28 85.10 C 508.47 100.92 508.23 116.73 508.39 132.55 C 542.55 132.46 576.71 132.58 610.87 132.49 C 610.81 147.42 610.94 162.34 610.80 177.27 C 576.65 177.23 542.50 177.32 508.35 177.22 C 508.33 193.46 508.37 209.70 508.32 225.94 C 545.50 225.82 582.67 225.87 619.85 225.91 C 619.82 240.83 619.79 255.75 619.84 270.66 C 561.38 270.63 502.92 270.72 444.46 270.62 C 444.54 193.87 444.56 117.11 444.45 40.36 Z" />
<path fill="#512e70" d=" M 655.43 40.26 C 713.87 40.29 772.32 40.31 830.76 40.25 C 830.70 55.14 830.75 70.03 830.73 84.92 C 793.58 85.10 756.41 84.64 719.27 85.14 C 719.30 100.94 719.26 116.74 719.29 132.54 C 753.44 132.46 787.58 132.60 821.72 132.47 C 821.79 147.43 821.93 162.40 821.65 177.35 C 787.53 177.18 753.41 177.28 719.30 177.29 C 719.27 193.47 719.29 209.64 719.28 225.82 C 756.41 226.05 793.56 225.65 830.68 226.02 C 830.81 240.90 830.70 255.78 830.74 270.66 C 772.31 270.65 713.89 270.67 655.47 270.65 C 655.35 193.86 655.44 117.06 655.43 40.26 Z" />
<path fill="#512e70" d=" M 866.35 40.25 C 924.83 40.31 983.31 40.30 1041.79 40.25 C 1041.76 55.12 1041.82 69.98 1041.78 84.85 C 1004.64 84.94 967.49 85.08 930.37 84.78 C 930.08 100.70 930.27 116.62 930.25 132.54 C 964.39 132.48 998.53 132.58 1032.68 132.48 C 1032.81 147.43 1032.78 162.39 1032.69 177.34 C 998.54 177.14 964.39 177.35 930.24 177.25 C 930.28 193.45 930.17 209.66 930.26 225.87 C 967.40 225.92 1004.55 225.81 1041.69 225.92 C 1041.91 240.83 1041.71 255.74 1041.79 270.65 C 983.32 270.65 924.84 270.70 866.36 270.62 C 866.36 193.83 866.39 117.04 866.35 40.25 Z" />
<path fill="#054275" d=" M 149.42 47.67 C 154.78 45.05 160.76 47.69 165.29 50.78 C 177.73 59.50 189.07 69.64 200.43 79.70 C 221.24 98.94 240.86 119.70 256.91 143.13 C 260.47 147.98 261.78 155.09 258.30 160.33 C 251.95 170.69 243.62 179.62 236.11 189.12 C 216.12 210.44 195.68 231.63 172.01 248.94 C 167.40 252.38 162.93 256.61 157.11 257.80 C 153.12 258.93 148.92 257.50 145.56 255.33 C 121.48 237.82 99.52 217.56 79.14 195.90 C 72.32 188.30 65.33 180.83 59.28 172.58 C 54.48 166.39 47.95 160.38 47.49 152.06 C 47.93 144.46 53.76 138.85 58.09 133.11 C 81.27 104.20 107.90 78.00 137.50 55.68 C 141.49 53.04 145.06 49.72 149.42 47.67 Z" />
<path fill="#fcfcfc" d=" M 153.73 69.10 C 159.05 85.89 165.48 102.31 171.56 118.84 C 167.45 119.21 163.33 119.16 159.21 119.27 C 159.08 134.94 160.60 150.56 160.64 166.22 C 155.61 166.32 150.53 166.73 145.56 165.71 C 146.64 150.27 147.19 134.78 147.74 119.31 C 143.95 119.22 140.15 119.23 136.36 119.07 C 142.30 102.47 148.04 85.79 153.73 69.10 Z" />
<path fill="#fcfcfc" d=" M 106.15 132.50 C 110.43 130.37 115.04 128.96 119.77 128.26 C 124.45 131.93 129.66 134.86 134.77 137.89 C 127.74 139.49 120.44 141.30 114.57 145.70 C 112.07 147.50 110.56 150.25 108.87 152.75 C 109.36 159.53 116.15 162.89 121.86 164.66 C 144.76 171.68 169.92 171.32 192.60 163.55 C 197.32 161.45 203.01 158.63 204.18 153.08 C 204.31 147.28 198.91 143.65 194.09 141.76 C 190.23 139.50 185.90 141.80 181.93 142.53 C 180.71 138.15 178.87 133.99 177.58 129.65 C 187.05 132.28 196.60 134.68 206.28 136.49 C 204.11 137.03 201.95 137.65 199.91 138.57 C 204.99 141.40 210.74 144.42 213.00 150.15 C 214.80 154.46 212.18 159.15 208.99 162.03 C 204.90 165.59 199.86 167.88 194.80 169.70 C 176.49 175.34 157.09 176.79 138.05 175.34 C 124.86 174.08 111.72 171.16 99.64 165.63 C 94.82 163.36 89.83 160.27 87.57 155.21 C 86.18 151.16 87.46 146.46 90.32 143.34 C 94.48 138.31 100.46 135.43 106.15 132.50 Z" />
<path fill="#fcfcfc" d=" M 143.32 226.31 C 144.31 210.44 144.57 194.55 145.56 178.68 C 150.84 178.88 156.13 178.97 161.41 178.72 C 162.43 194.60 162.97 210.51 163.58 226.41 C 156.84 227.17 150.06 226.76 143.32 226.31 Z" />
<path fill="#512e70" d=" M 398.73 284.51 C 402.47 284.47 406.21 284.49 409.95 284.42 C 410.09 293.69 409.92 302.97 410.06 312.25 C 412.63 308.80 415.46 305.04 419.84 303.90 C 424.31 302.28 429.57 303.51 432.84 306.95 C 435.29 309.68 435.99 313.47 436.03 317.02 C 436.04 327.71 435.95 338.40 436.06 349.09 C 432.26 348.97 428.46 349.00 424.67 349.07 C 424.91 339.70 424.69 330.33 424.79 320.96 C 424.72 318.24 424.94 314.52 421.99 313.15 C 418.44 311.72 414.94 314.37 412.78 316.96 C 413.69 317.47 414.60 318.00 415.52 318.52 C 414.15 318.54 412.90 318.30 411.64 317.84 C 410.83 319.44 409.77 321.04 410.01 322.94 C 410.01 331.64 409.96 340.35 410.06 349.06 C 406.25 348.98 402.44 348.98 398.63 349.04 C 398.88 327.53 398.70 306.02 398.73 284.51 Z" />
<path fill="#512e70" d=" M 900.53 286.69 C 904.29 286.72 908.06 286.71 911.83 286.83 C 911.76 290.14 911.76 293.45 911.81 296.76 C 908.03 296.78 904.26 296.80 900.49 296.74 C 900.48 293.38 900.48 290.03 900.53 286.69 Z" />
<path fill="#512e70" d=" M 1096.00 286.71 C 1099.76 286.72 1103.52 286.72 1107.29 286.74 C 1107.20 290.06 1107.20 293.38 1107.29 296.70 C 1103.52 296.80 1099.76 296.79 1096.00 296.80 C 1095.98 293.44 1095.98 290.07 1096.00 286.71 Z" />
<path fill="#512e70" d=" M 223.49 288.73 C 227.02 288.79 230.54 288.79 234.07 288.73 C 242.47 302.55 251.20 316.18 259.81 329.87 C 259.69 316.15 259.74 302.43 259.78 288.71 C 262.88 288.82 265.99 288.80 269.10 288.69 C 268.93 308.82 268.96 328.95 269.08 349.07 C 265.62 349.00 262.16 349.00 258.70 349.07 C 249.92 335.67 241.88 321.77 232.88 308.51 C 232.67 321.99 232.87 335.47 232.79 348.94 C 229.71 349.03 226.64 349.01 223.57 349.05 C 223.37 328.94 223.54 308.83 223.49 288.73 Z" />
<path fill="#512e70" d=" M 792.41 288.82 C 796.34 288.75 800.28 288.81 804.22 288.71 C 804.34 301.82 804.15 314.92 804.29 328.03 C 804.65 331.93 804.86 336.32 807.71 339.33 C 811.52 342.74 817.86 343.34 822.00 340.17 C 825.68 337.78 825.83 332.83 826.16 328.90 C 826.34 315.49 826.09 302.09 826.27 288.69 C 829.66 288.82 833.06 288.80 836.47 288.73 C 836.63 301.50 836.50 314.27 836.53 327.05 C 836.41 333.13 835.90 339.91 831.45 344.53 C 825.98 350.14 817.50 351.32 810.06 350.17 C 802.88 349.24 795.91 344.34 793.85 337.20 C 792.03 330.97 792.55 324.42 792.50 318.02 C 792.45 308.29 792.58 298.55 792.41 288.82 Z" />
<path fill="#512e70" d=" M 368.20 296.82 C 371.95 296.21 375.72 295.79 379.50 295.41 C 379.50 298.34 379.50 301.27 379.52 304.21 C 382.42 304.25 385.32 304.23 388.23 304.20 C 388.25 306.74 388.25 309.28 388.23 311.83 C 385.32 311.78 382.41 311.76 379.50 311.81 C 379.78 320.54 378.93 329.35 379.97 338.03 C 380.85 342.33 385.88 342.24 389.31 341.71 C 389.28 344.09 389.27 346.48 389.28 348.87 C 383.85 350.51 377.52 350.70 372.70 347.32 C 369.09 344.84 368.35 340.09 368.24 336.02 C 368.18 327.94 368.25 319.86 368.23 311.77 C 366.63 311.77 365.04 311.79 363.45 311.80 C 363.45 309.26 363.46 306.73 363.46 304.20 C 365.04 304.21 366.63 304.22 368.22 304.24 C 368.22 301.77 368.21 299.29 368.20 296.82 Z" />
<path fill="#512e70" d=" M 606.16 296.66 C 609.94 296.26 613.73 295.81 617.52 295.43 C 617.52 298.36 617.52 301.29 617.53 304.22 C 620.41 304.24 623.30 304.22 626.19 304.17 C 626.23 306.72 626.23 309.28 626.20 311.84 C 623.31 311.78 620.42 311.76 617.54 311.78 C 617.53 319.19 617.50 326.59 617.52 334.00 C 617.68 336.23 617.54 338.98 619.43 340.56 C 621.52 342.62 624.65 341.80 627.28 341.77 C 627.25 344.14 627.25 346.52 627.26 348.90 C 621.84 350.39 615.34 350.95 610.68 347.20 C 606.97 344.83 606.33 340.08 606.22 336.05 C 606.20 327.96 606.22 319.88 606.22 311.79 C 604.62 311.78 603.04 311.78 601.46 311.77 C 601.45 309.26 601.46 306.75 601.48 304.24 C 603.05 304.23 604.63 304.22 606.22 304.22 C 606.20 301.70 606.18 299.18 606.16 296.66 Z" />
<path fill="#512e70" d=" M 1122.11 296.58 C 1125.84 296.30 1129.55 295.81 1133.28 295.43 C 1133.25 298.37 1133.25 301.32 1133.28 304.26 C 1136.18 304.24 1139.08 304.22 1142.00 304.15 C 1141.98 306.71 1141.99 309.29 1142.00 311.86 C 1139.07 311.79 1136.15 311.77 1133.24 311.80 C 1133.29 319.21 1133.19 326.63 1133.25 334.05 C 1133.34 336.55 1133.55 339.54 1135.76 341.16 C 1137.98 342.33 1140.56 341.88 1142.96 341.60 C 1143.02 344.04 1143.14 346.50 1142.86 348.94 C 1137.01 350.56 1129.45 350.89 1125.04 346.00 C 1122.35 343.40 1122.13 339.44 1121.99 335.94 C 1121.97 327.91 1122.02 319.88 1121.98 311.85 C 1120.37 311.81 1118.78 311.79 1117.20 311.76 C 1117.20 309.25 1117.20 306.75 1117.22 304.24 C 1118.78 304.22 1120.35 304.19 1121.94 304.16 C 1121.95 301.63 1121.98 299.10 1122.11 296.58 Z" />
<path fill="#512e70" d=" M 296.45 303.53 C 303.09 302.50 310.51 303.77 315.56 308.49 C 319.09 311.66 320.83 316.29 321.75 320.84 C 323.16 328.87 321.76 337.83 316.30 344.15 C 307.05 353.43 288.30 352.03 282.18 339.80 C 278.16 331.44 278.11 321.07 282.55 312.86 C 285.35 307.68 290.63 304.23 296.45 303.53 Z" />
<path fill="#512e70" d=" M 520.93 306.92 C 528.60 300.89 542.19 302.01 546.96 311.16 C 549.74 316.68 549.88 323.04 550.09 329.10 C 541.53 328.95 532.97 328.94 524.41 329.10 C 524.93 333.71 526.74 338.73 531.25 340.82 C 537.31 343.40 544.08 341.27 550.03 339.35 C 550.01 342.12 550.00 344.90 549.97 347.68 C 541.60 349.91 532.25 351.55 524.08 347.75 C 517.58 344.85 514.06 337.81 513.07 331.07 C 511.82 322.46 513.82 312.56 520.93 306.92 Z" />
<path fill="#512e70" d=" M 567.48 305.45 C 574.50 301.81 582.64 303.47 590.12 304.36 C 590.21 307.14 590.25 309.92 590.33 312.71 C 585.33 311.48 579.92 309.80 574.84 311.56 C 571.31 312.56 571.56 317.84 574.66 319.22 C 580.21 322.22 586.96 323.62 591.27 328.55 C 596.01 334.89 592.91 344.58 585.96 347.88 C 578.08 351.60 568.93 349.88 560.85 347.69 C 560.76 344.73 560.75 341.77 560.77 338.81 C 566.46 340.94 572.82 343.94 578.92 341.75 C 581.90 340.83 583.18 336.46 580.68 334.37 C 575.22 330.26 567.55 329.41 563.21 323.75 C 558.78 318.03 561.04 308.68 567.48 305.45 Z" />
<path fill="#512e70" d=" M 638.63 309.65 C 645.29 301.13 660.61 300.72 666.78 310.01 C 670.28 315.66 670.29 322.59 670.60 329.02 C 662.00 329.03 653.40 328.92 644.81 329.08 C 645.59 333.28 646.67 337.89 650.64 340.24 C 656.81 343.80 664.22 341.28 670.52 339.37 C 670.52 342.10 670.52 344.84 670.54 347.58 C 662.12 349.92 652.54 351.72 644.38 347.60 C 638.44 344.85 635.05 338.56 633.82 332.39 C 632.24 324.63 633.60 315.93 638.63 309.65 Z" />
<path fill="#512e70" d=" M 868.10 305.12 C 872.48 302.60 878.52 302.32 882.49 305.79 C 885.99 308.33 887.01 312.92 887.02 317.02 C 887.06 327.69 886.88 338.37 887.13 349.05 C 883.32 349.00 879.51 348.99 875.70 349.06 C 875.75 339.03 875.80 328.99 875.72 318.96 C 875.79 316.42 874.80 313.40 872.01 312.80 C 867.45 312.32 863.97 316.09 861.74 319.59 C 860.73 320.85 861.11 322.55 861.00 324.04 C 860.98 332.38 861.03 340.73 860.99 349.08 C 857.22 349.02 853.46 349.03 849.71 348.97 C 849.85 334.04 849.66 319.11 849.79 304.18 C 853.53 304.26 857.28 304.24 861.03 304.21 C 861.01 307.00 861.00 309.80 860.99 312.60 C 862.85 309.70 864.92 306.70 868.10 305.12 Z" />
<path fill="#512e70" d=" M 972.17 311.27 C 977.76 302.02 992.38 300.36 999.98 307.97 C 1005.03 313.69 1004.90 321.80 1005.44 328.96 C 996.87 329.13 988.29 328.88 979.72 329.07 C 980.06 333.59 981.77 338.41 986.04 340.61 C 992.21 343.47 999.26 341.46 1005.31 339.23 C 1005.22 341.96 1005.33 344.70 1005.10 347.42 C 999.04 349.68 992.33 350.50 985.91 349.71 C 980.10 348.98 974.41 345.77 971.58 340.51 C 966.61 331.62 966.66 319.91 972.17 311.27 Z" />
<path fill="#512e70" d=" M 1028.22 312.19 C 1031.04 306.50 1036.95 302.36 1043.49 303.23 C 1043.49 306.79 1043.49 310.36 1043.56 313.93 C 1041.00 313.47 1038.30 312.83 1035.78 313.76 C 1032.35 314.58 1030.38 317.72 1028.22 320.21 C 1028.30 329.83 1028.19 339.44 1028.30 349.06 C 1024.48 348.99 1020.67 349.01 1016.87 349.05 C 1017.13 334.08 1016.93 319.11 1016.98 304.15 C 1020.72 304.23 1024.47 304.20 1028.22 304.24 C 1028.20 306.89 1028.22 309.54 1028.22 312.19 Z" />
<path fill="#512e70" d=" M 1063.78 303.64 C 1069.51 302.53 1075.33 303.69 1081.05 304.40 C 1081.03 307.18 1081.03 309.96 1081.09 312.74 C 1075.56 311.14 1069.54 309.78 1064.00 312.05 C 1063.57 313.58 1062.50 315.21 1063.25 316.82 C 1064.48 319.70 1067.85 320.31 1070.42 321.49 C 1074.78 323.45 1079.88 325.18 1082.59 329.39 C 1086.83 336.19 1082.77 345.62 1075.60 348.45 C 1067.81 351.37 1059.23 349.85 1051.48 347.58 C 1051.48 344.65 1051.47 341.71 1051.43 338.78 C 1057.22 340.94 1063.62 343.86 1069.84 341.75 C 1072.90 340.55 1073.25 336.85 1071.83 334.26 C 1066.73 331.16 1060.72 329.71 1056.01 325.98 C 1050.76 321.92 1050.41 313.59 1054.48 308.60 C 1056.54 305.49 1060.28 304.27 1063.78 303.64 Z" />
<path fill="#512e70" d=" M 332.00 304.17 C 335.74 304.25 339.48 304.24 343.23 304.17 C 343.24 306.84 343.22 309.52 343.16 312.19 C 346.18 306.64 351.90 302.38 358.49 303.14 C 358.51 306.71 358.49 310.28 358.57 313.85 C 356.01 313.52 353.32 312.81 350.81 313.75 C 347.53 314.87 345.15 317.58 343.18 320.31 C 343.37 329.89 343.05 339.48 343.33 349.07 C 339.53 349.00 335.74 348.97 331.94 349.09 C 332.05 334.12 331.95 319.14 332.00 304.17 Z" />
<path fill="#512e70" d=" M 499.17 304.18 C 501.80 304.22 504.43 304.23 507.06 304.22 C 502.83 319.12 498.58 334.01 494.53 348.96 C 491.05 349.02 487.58 349.03 484.11 348.96 C 481.66 338.61 478.67 328.38 476.46 317.97 C 473.72 328.33 470.87 338.67 468.16 349.04 C 464.43 349.00 460.71 348.99 457.00 349.07 C 453.32 334.06 449.34 319.13 445.43 304.19 C 448.96 304.22 452.49 304.23 456.03 304.24 C 458.86 314.48 461.16 324.88 464.21 335.06 C 466.95 324.82 469.83 314.62 472.40 304.34 C 475.71 304.21 479.04 304.23 482.36 304.16 C 485.16 314.58 487.54 325.11 490.47 335.49 C 493.29 325.03 496.38 314.65 499.17 304.18 Z" />
<path fill="#512e70" d=" M 682.00 304.17 C 685.74 304.27 689.49 304.23 693.24 304.18 C 693.25 306.85 693.23 309.51 693.18 312.18 C 696.04 306.51 701.98 302.45 708.51 303.21 C 708.53 306.76 708.51 310.32 708.60 313.87 C 706.01 313.55 703.30 312.78 700.79 313.82 C 697.42 314.73 695.24 317.59 693.22 320.21 C 693.33 329.84 693.16 339.47 693.31 349.10 C 689.53 349.01 685.76 349.01 682.00 348.99 C 682.00 334.05 681.99 319.11 682.00 304.17 Z" />
<path fill="#512e70" d=" M 717.24 304.19 C 720.99 304.25 724.74 304.24 728.50 304.21 C 728.52 306.84 728.50 309.49 728.48 312.13 C 731.29 308.60 734.28 304.63 739.00 303.73 C 743.91 302.02 749.54 304.22 752.49 308.38 C 754.04 310.91 754.41 313.98 754.53 316.90 C 754.52 327.59 754.40 338.27 754.59 348.96 C 750.80 349.03 747.01 349.06 743.22 348.94 C 743.13 338.97 743.29 329.00 743.18 319.03 C 743.22 316.97 742.30 315.10 741.49 313.27 C 735.93 311.23 731.52 315.97 728.85 320.21 C 728.00 329.78 728.88 339.45 728.38 349.05 C 724.66 348.99 720.95 349.00 717.24 349.03 C 717.21 334.09 717.24 319.14 717.24 304.19 Z" />
<path fill="#512e70" d=" M 900.51 304.21 C 904.25 304.23 908.00 304.22 911.75 304.25 C 911.87 319.17 911.64 334.09 911.86 349.01 C 908.05 349.02 904.24 349.03 900.45 348.96 C 900.55 334.04 900.46 319.13 900.51 304.21 Z" />
<path fill="#512e70" d=" M 920.67 304.18 C 924.59 304.23 928.52 304.22 932.46 304.27 C 936.12 314.96 940.08 325.55 943.80 336.22 C 947.96 325.66 951.60 314.90 955.50 304.23 C 958.17 304.21 960.85 304.20 963.53 304.21 C 958.17 319.17 952.78 334.13 947.34 349.06 C 943.64 348.99 939.95 348.99 936.26 349.00 C 931.41 333.94 925.37 319.28 920.67 304.18 Z" />
<path fill="#512e70" d=" M 1096.00 304.21 C 1099.72 304.24 1103.45 304.25 1107.19 304.17 C 1107.35 319.13 1107.03 334.10 1107.35 349.06 C 1103.56 348.99 1099.78 348.99 1096.00 349.00 C 1095.98 334.07 1096.01 319.14 1096.00 304.21 Z" />
<path fill="#512e70" d=" M 1146.78 304.18 C 1150.79 304.23 1154.79 304.23 1158.81 304.18 C 1162.23 314.17 1165.52 324.22 1169.22 334.12 C 1173.26 324.13 1177.41 314.19 1181.48 304.21 C 1184.31 304.21 1187.15 304.19 1190.00 304.39 L 1190.00 306.09 L 1189.86 304.75 C 1181.05 324.71 1172.79 344.91 1164.28 365.00 L 1153.03 365.00 C 1156.23 359.75 1159.05 354.27 1162.26 349.01 C 1157.04 334.09 1152.05 319.09 1146.78 304.18 Z" />
<path fill="#fcfcfc" d=" M 1189.86 304.75 L 1190.00 306.09 L 1190.00 365.00 L 1164.28 365.00 C 1172.79 344.91 1181.05 324.71 1189.86 304.75 Z" />
<path fill="#fcfcfc" d=" M 297.42 311.40 C 300.26 310.26 303.92 310.50 306.05 312.91 C 309.47 316.66 310.29 322.03 310.24 326.94 C 310.19 331.82 309.29 337.15 305.75 340.78 C 302.35 343.71 296.36 342.81 294.18 338.81 C 291.00 333.38 290.68 326.69 291.82 320.63 C 292.53 317.07 294.05 313.19 297.42 311.40 Z" />
<path fill="#fcfcfc" d=" M 527.17 313.22 C 529.28 310.31 534.01 309.90 536.47 312.59 C 538.82 315.22 538.84 318.98 539.09 322.29 C 534.11 322.17 529.14 322.21 524.18 322.18 C 524.80 319.10 525.19 315.78 527.17 313.22 Z" />
<path fill="#fcfcfc" d=" M 648.37 312.39 C 650.75 310.13 655.13 310.20 657.20 312.85 C 659.28 315.51 659.25 319.06 659.66 322.26 C 654.65 322.19 649.63 322.19 644.62 322.26 C 645.29 318.81 646.03 315.13 648.37 312.39 Z" />
<path fill="#fcfcfc" d=" M 983.24 312.35 C 985.79 310.05 990.63 310.28 992.41 313.46 C 994.05 316.08 994.09 319.26 994.39 322.25 C 989.41 322.20 984.43 322.17 979.46 322.23 C 979.84 318.68 980.78 315.06 983.24 312.35 Z" />
</svg>
